<svg width="25" height="25" viewBox="0 0 25 25" fill="none" xmlns="http://www.w3.org/2000/svg">
<g clip-path="url(#clip0_259_950)">
<path d="M0 24.4631C0.118718 24.2348 0.305928 24.1617 0.560977 24.1644C1.65945 24.1741 2.75792 24.1683 3.85639 24.1683C3.9451 24.1683 4.03382 24.1683 4.16297 24.1683C4.16297 24.045 4.16297 23.9361 4.16297 23.8265C4.16297 16.113 4.16297 8.40026 4.16297 0.686826C4.16297 0.588981 4.15775 0.490484 4.16884 0.394596C4.19754 0.155203 4.34888 0.0175676 4.59023 0.00191244C4.64698 -0.00200135 4.70438 0.000607841 4.76113 0.000607841C8.25158 0.000607841 11.742 0.000607841 15.2325 0.000607841C15.7165 0.000607841 15.8287 0.11476 15.8287 0.60855C15.8287 3.63522 15.8287 6.66188 15.8287 9.68855C15.8287 9.78378 15.8287 9.87967 15.8287 10.0043C15.95 10.0043 16.0452 10.0043 16.1405 10.0043C17.9141 10.0043 19.6877 10.0043 21.4619 10.0043C21.9746 10.0043 22.079 10.1067 22.079 10.6122C22.079 15.0139 22.079 19.4156 22.079 23.8173C22.079 23.9217 22.079 24.0267 22.079 24.1683C22.1821 24.1683 22.2675 24.1683 22.353 24.1683C23.0529 24.1683 23.7522 24.1728 24.4521 24.1657C24.6928 24.1631 24.8963 24.212 24.9772 24.4638C25.06 24.7221 24.9035 24.8747 24.7065 25H0V24.4631ZM10.4126 24.1546C10.4126 24.0306 10.4126 23.9263 10.4126 23.8219C10.4126 19.4202 10.4126 15.0191 10.4126 10.6174C10.4126 10.1158 10.5261 10.0043 11.0323 10.0043C12.2606 10.0043 13.4895 10.0043 14.7178 10.0043H14.9813V0.846639H5.01552V24.1494H6.25033C6.25033 24.0411 6.25033 23.9517 6.25033 23.863C6.25033 22.7156 6.24576 21.5689 6.25228 20.4215C6.2562 19.7359 6.7539 19.2167 7.43686 19.1762C7.69647 19.1612 7.95739 19.1677 8.21766 19.1691C9.0813 19.1743 9.57705 19.672 9.57901 20.5363C9.58096 21.6511 9.57901 22.7658 9.57901 23.88C9.57901 23.9674 9.57901 24.0548 9.57901 24.1552H10.4126V24.1546ZM21.2297 24.1598V10.8516H11.2639V24.1598H21.2297ZM8.74276 24.1565C8.74276 22.8852 8.74667 21.6334 8.7395 20.3817C8.73819 20.1579 8.57577 20.0183 8.33703 20.0086C8.09307 19.9981 7.84911 20.002 7.60515 20.0046C7.21899 20.0086 7.08266 20.1482 7.08266 20.5408C7.08135 21.6798 7.08266 22.8187 7.08266 23.9582C7.08266 24.0209 7.08853 24.0835 7.09244 24.1572H8.74341L8.74276 24.1565Z" fill="#0F75BD"/>
<path d="M12.0683 9.17127C11.6867 9.17127 11.3045 9.17454 10.9229 9.16997C10.5726 9.16606 10.416 9.01277 10.4141 8.66183C10.4102 7.89016 10.4102 7.11849 10.4141 6.34682C10.416 5.99067 10.5641 5.83672 10.9157 5.83411C11.6958 5.8289 12.4753 5.8289 13.2555 5.83411C13.5966 5.83607 13.7493 5.9874 13.7512 6.32725C13.7564 7.1074 13.7564 7.8869 13.7512 8.66705C13.7493 9.01668 13.5908 9.16671 13.2379 9.17062C12.8478 9.17454 12.4577 9.17127 12.0683 9.17127ZM12.9026 6.67036C12.3821 6.67036 11.8804 6.66579 11.3795 6.67819C11.3338 6.67949 11.2555 6.78908 11.2529 6.85105C11.2405 7.18307 11.2471 7.51574 11.2464 7.84841C11.2464 8.00627 11.2464 8.16478 11.2464 8.32329H12.9026V6.67036Z" fill="#0F75BD"/>
<path d="M6.24965 7.48582C6.24965 7.10422 6.24769 6.72198 6.24965 6.34038C6.25161 5.99401 6.3925 5.83746 6.72974 5.83485C7.51772 5.82833 8.30569 5.82898 9.09367 5.83485C9.43678 5.83746 9.57637 5.98618 9.57768 6.33386C9.58029 7.11401 9.58029 7.89351 9.57768 8.67366C9.57637 9.01481 9.4283 9.1681 9.08911 9.17005C8.30896 9.17462 7.52946 9.17397 6.74931 9.17005C6.40033 9.1681 6.25226 9.01089 6.2503 8.65604C6.24834 8.26597 6.2503 7.87589 6.2503 7.48647L6.24965 7.48582ZM8.73295 8.32598V6.6848H7.09829V8.32598H8.73295Z" fill="#0F75BD"/>
<path d="M12.1041 1.66465C12.4857 1.66465 12.8679 1.66204 13.2495 1.6653C13.5881 1.66856 13.7479 1.81794 13.7505 2.15387C13.7564 2.94185 13.7564 3.72982 13.7505 4.5178C13.7479 4.84656 13.5959 4.99333 13.2671 4.99528C12.4792 4.99985 11.6912 4.99985 10.9032 4.99528C10.5634 4.99333 10.4153 4.84395 10.4133 4.49888C10.4088 3.71873 10.4088 2.93924 10.4133 2.15909C10.4153 1.8212 10.5732 1.66856 10.9091 1.66465C11.307 1.66073 11.7049 1.66399 12.1034 1.66399L12.1041 1.66465ZM12.8953 4.15251V2.51133H11.2626V4.15251H12.8953Z" fill="#0F75BD"/>
<path d="M7.926 13.3323C7.5281 13.3323 7.12955 13.335 6.73165 13.3317C6.40745 13.3291 6.25155 13.1764 6.25025 12.8536C6.24699 12.0656 6.24699 11.2776 6.25025 10.4896C6.25155 10.1602 6.39963 10.0076 6.72317 10.0056C7.51897 10.0024 8.31543 10.0024 9.11188 10.0056C9.42629 10.0069 9.57567 10.1543 9.57697 10.4688C9.58089 11.2646 9.58089 12.061 9.57697 12.8575C9.57567 13.1836 9.42433 13.3291 9.09558 13.3317C8.7055 13.335 8.31543 13.3323 7.926 13.3323ZM7.09237 12.4876H8.73094V10.8543H7.09237V12.4876Z" fill="#0F75BD"/>
<path d="M7.88499 4.99731C7.50339 4.99731 7.12115 5.00122 6.73955 4.996C6.3971 4.99144 6.25163 4.84467 6.25098 4.50287C6.24837 3.72272 6.24837 2.94322 6.25098 2.16307C6.25228 1.82388 6.40427 1.66732 6.74086 1.66602C7.52101 1.66276 8.3005 1.66276 9.08065 1.66602C9.42441 1.66732 9.57705 1.81474 9.57836 2.15198C9.58162 2.93996 9.58162 3.72794 9.57836 4.51591C9.57705 4.84728 9.4342 4.99144 9.10414 4.996C8.69775 5.00188 8.29202 4.99731 7.88564 4.99731H7.88499ZM8.73298 4.15258V2.51336H7.09897V4.15258H8.73298Z" fill="#0F75BD"/>
<path d="M9.57828 15.8196C9.57828 16.2259 9.58284 16.6317 9.57697 17.0381C9.57306 17.3401 9.4289 17.4921 9.12884 17.494C8.31673 17.4999 7.50397 17.4999 6.69185 17.494C6.40745 17.4914 6.25351 17.3349 6.2522 17.0524C6.24699 16.2403 6.24699 15.4275 6.2522 14.6154C6.25416 14.3382 6.41528 14.1699 6.69055 14.1673C7.51114 14.1608 8.33173 14.1608 9.15167 14.1679C9.41651 14.1706 9.5711 14.3349 9.57632 14.6011C9.58349 15.0068 9.57828 15.4132 9.57828 15.8196ZM8.73094 16.6499V15.014H7.10019V16.6499H8.73094Z" fill="#0F75BD"/>
<path d="M18.3485 15.83C18.7301 15.83 19.1124 15.8267 19.494 15.8307C19.8443 15.8346 19.9989 15.9859 20.0015 16.3395C20.006 17.1111 20.006 17.8828 20.0015 18.6545C19.9995 19.0113 19.8508 19.1639 19.4992 19.1665C18.7191 19.1717 17.9396 19.1717 17.1594 19.1665C16.8183 19.1639 16.6663 19.0113 16.6643 18.6721C16.6597 17.8919 16.6597 17.1124 16.6643 16.3323C16.6663 15.9833 16.8241 15.8339 17.179 15.8307C17.5691 15.8267 17.9591 15.83 18.3485 15.83ZM17.5116 16.6767V18.3146H19.1476V16.6767H17.5116Z" fill="#0F75BD"/>
<path d="M15.8286 17.5058C15.8286 17.8958 15.8312 18.2859 15.828 18.6753C15.8247 19.01 15.6877 19.1626 15.3603 19.1652C14.5645 19.1724 13.768 19.1717 12.9722 19.1652C12.648 19.1626 12.5025 19.0041 12.5012 18.6753C12.4986 17.8874 12.498 17.0994 12.5012 16.3114C12.5025 15.9905 12.6584 15.8333 12.9839 15.8313C13.7719 15.8261 14.5599 15.8261 15.3479 15.8313C15.674 15.8333 15.824 15.9879 15.828 16.3114C15.8325 16.7093 15.8293 17.1072 15.8293 17.5058H15.8286ZM13.3447 18.314H14.9754V16.6767H13.3447V18.314Z" fill="#0F75BD"/>
<path d="M18.3277 20.0041C18.7177 20.0041 19.1078 20.0008 19.4972 20.0048C19.8462 20.008 19.9976 20.1476 20.0008 20.4868C20.0067 21.2748 20.0067 22.0628 20.0008 22.8507C19.9982 23.1756 19.8384 23.3334 19.5201 23.3347C18.7321 23.3393 17.9441 23.3387 17.1561 23.3347C16.8235 23.3334 16.6663 23.1756 16.6643 22.8364C16.6597 22.0562 16.6597 21.2767 16.6643 20.4966C16.6663 20.1541 16.8156 20.0087 17.1581 20.0048C17.5482 20.0002 17.9383 20.0034 18.3277 20.0034V20.0041ZM19.1457 22.4933V20.8521H17.5143V22.4933H19.1457Z" fill="#0F75BD"/>
<path d="M18.3133 14.9964C17.9317 14.9964 17.5495 14.9984 17.1679 14.9964C16.8228 14.9938 16.6663 14.8509 16.6643 14.5144C16.6584 13.7264 16.6591 12.9384 16.6643 12.1504C16.6663 11.823 16.8228 11.671 17.1451 11.6697C17.9409 11.6664 18.7373 11.6664 19.5331 11.6697C19.8319 11.671 19.995 11.8184 19.9982 12.1152C20.0067 12.9273 20.0067 13.7401 19.9982 14.5522C19.995 14.8503 19.8338 14.9918 19.5318 14.9951C19.1254 14.9997 18.7197 14.9964 18.3133 14.9964ZM17.5084 14.1543H19.1522V12.5144H17.5084V14.1543Z" fill="#0F75BD"/>
<path d="M14.1595 11.669C14.5496 11.669 14.9397 11.6671 15.3291 11.669C15.6761 11.671 15.8255 11.8125 15.8275 12.1511C15.8307 12.939 15.8307 13.727 15.8275 14.515C15.8262 14.8464 15.6814 14.9938 15.3539 14.9951C14.5581 14.9984 13.7616 14.9984 12.9652 14.9951C12.656 14.9938 12.502 14.8385 12.5007 14.528C12.4968 13.7322 12.4975 12.9358 12.5007 12.1393C12.502 11.8295 12.6579 11.6736 12.9652 11.6697C13.3631 11.6651 13.761 11.6684 14.1595 11.6684V11.669ZM14.9775 14.1536V12.5209H13.3455V14.1536H14.9775Z" fill="#0F75BD"/>
<path d="M15.8287 21.6765C15.8287 22.0666 15.8319 22.4567 15.828 22.8461C15.8248 23.1736 15.6754 23.3327 15.3571 23.334C14.5613 23.3386 13.7648 23.3386 12.969 23.334C12.6624 23.3321 12.5033 23.1696 12.502 22.8637C12.4981 22.0679 12.4987 21.2714 12.502 20.4756C12.5033 20.1619 12.6513 20.0079 12.9638 20.006C13.7681 20.0008 14.5724 20.0008 15.3766 20.006C15.6787 20.0079 15.8248 20.158 15.8287 20.458C15.8346 20.8644 15.83 21.2701 15.83 21.6765H15.8287ZM14.9859 20.8585H13.3454V22.488H14.9859V20.8585Z" fill="#0F75BD"/>
</g>
<defs>
<clipPath id="clip0_259_950">
<rect width="25" height="25" fill="white"/>
</clipPath>
</defs>
</svg>
