<svg width="26" height="26" viewBox="0 0 26 26" fill="none" xmlns="http://www.w3.org/2000/svg">
<g clip-path="url(#clip0_61_1487)">
<path d="M7.11006 23.9102C6.64341 25.3297 5.76601 26.0352 4.51627 25.9926C3.53129 25.9591 2.42825 25.3031 2.12787 23.9004C1.86451 23.9004 1.59556 23.9018 1.32591 23.9004C0.539326 23.8955 0.00492176 23.3695 0.00212749 22.5892C-0.00136535 21.4715 3.17881e-05 20.3538 0.00212749 19.2354C0.00352463 18.4579 0.244531 17.7628 0.730035 17.1522C0.785921 17.0824 0.832725 16.9867 0.840409 16.8994C1.00807 14.8714 2.08665 13.468 3.83587 12.5263C4.80688 12.0038 5.84984 11.7467 6.95218 11.7439C8.6993 11.7404 10.4464 11.7383 12.1928 11.7439C13.6256 11.7488 14.9501 12.14 16.1502 12.9231C17.1883 13.6007 18.2138 14.2965 19.2484 14.9783C19.3448 15.0419 19.4684 15.0894 19.5816 15.0957C21.7667 15.22 23.5634 16.1149 24.9522 17.8075C25.641 18.6465 25.9826 19.6196 25.9958 20.7045C26.0021 21.1935 26 21.6825 25.9958 22.1715C25.9889 23.1809 25.2693 23.8934 24.2529 23.8983C23.7122 23.9011 23.1715 23.8983 22.612 23.8983C22.4639 24.599 22.1181 25.1655 21.5257 25.5651C21.0779 25.8676 20.5805 26.0059 20.0405 25.9919C18.8886 25.9612 18.0664 25.2528 17.6298 23.9081H7.11006V23.9102ZM24.0168 18.031C23.9434 17.9465 23.9078 17.9018 23.8673 17.8606C22.6623 16.6479 21.2023 16.0185 19.4971 15.9297C19.284 15.9186 19.0493 15.8473 18.8711 15.7321C17.8163 15.0496 16.7782 14.3405 15.729 13.6496C14.6672 12.9504 13.4957 12.5892 12.2236 12.5829C10.4597 12.5745 8.69511 12.5759 6.93122 12.5829C5.78487 12.5871 4.72864 12.9126 3.76811 13.5365C2.51068 14.3531 1.7716 15.4897 1.68707 17.0076C1.6738 17.2493 1.61093 17.4359 1.44607 17.6161C1.13031 17.9619 0.934716 18.3719 0.882323 18.8463C1.94764 18.9734 2.50999 19.4862 2.51627 20.3202C2.51907 20.6835 2.40171 21.0069 2.16769 21.2836C1.82749 21.6859 1.37342 21.8257 0.8446 21.8089C0.8446 22.1156 0.831328 22.402 0.848792 22.687C0.861366 22.8917 0.998285 23.0363 1.20157 23.0496C1.51173 23.0705 1.82469 23.0551 2.13066 23.0551C2.41778 21.7006 3.48309 21.016 4.49532 20.9692C5.06325 20.9427 5.58438 21.0936 6.05033 21.4191C6.62036 21.8173 6.95497 22.3719 7.09748 23.0503H17.634C18.0566 21.7132 18.8886 20.9972 20.044 20.9671C20.584 20.9531 21.0807 21.0922 21.5285 21.3939C22.1209 21.7935 22.4667 22.3601 22.6141 23.0586C23.2169 23.0586 23.8016 23.0712 24.3856 23.0544C24.7733 23.0433 25.1247 22.731 25.1443 22.3468C25.1743 21.7572 25.152 21.1648 25.152 20.5459C24.5847 20.5459 24.0371 20.5515 23.4894 20.5445C22.7726 20.5354 22.2222 19.9786 22.2264 19.2794C22.2306 18.5934 22.7796 18.0464 23.4817 18.0317C23.6438 18.0282 23.8058 18.0317 24.0182 18.0317L24.0168 18.031ZM4.61128 21.804C3.68568 21.804 2.93262 22.5613 2.93681 23.489C2.941 24.4041 3.68917 25.1536 4.6022 25.1571C5.5299 25.1606 6.28644 24.4111 6.28994 23.4848C6.29343 22.5592 5.53898 21.804 4.61128 21.804ZM21.8037 23.4862C21.8079 22.5606 21.0542 21.8047 20.1265 21.804C19.2113 21.804 18.4583 22.5487 18.4506 23.461C18.4429 24.3901 19.1918 25.1522 20.1146 25.1564C21.0423 25.1606 21.7995 24.4118 21.8037 23.4855V23.4862ZM25.0339 19.7076C24.92 19.4401 24.8271 19.1997 24.714 18.9699C24.6888 18.9189 24.5945 18.8756 24.5302 18.8742C24.1914 18.8651 23.8519 18.8651 23.5124 18.8721C23.2442 18.8777 23.0688 19.0447 23.064 19.2808C23.0591 19.5267 23.2407 19.7027 23.5229 19.7062C24.0007 19.7118 24.4792 19.7076 25.0339 19.7076ZM0.852983 20.9552C1.14918 20.993 1.39856 20.9343 1.56832 20.6821C1.71222 20.4676 1.71991 20.2385 1.58438 20.0178C1.41882 19.7488 1.16594 19.6755 0.852983 19.7223V20.9552Z" fill="#0F75BD"/>
<path d="M2.51678 7.97029C2.13745 7.97029 1.78887 7.95912 1.44168 7.97379C1.12453 7.98706 0.89051 7.90183 0.821352 7.54766H0.0166016V6.72754H0.821352V5.88507H0.0221901V5.04749H0.805983C0.960367 4.66816 1.03442 4.61787 1.42002 4.61787C1.77629 4.61787 2.13256 4.61787 2.51887 4.61787C2.51887 4.45999 2.51049 4.32307 2.52097 4.18615C2.53773 3.95562 2.66976 3.79006 2.8961 3.78867C3.60235 3.78308 4.31279 3.76422 5.01416 3.82779C5.71761 3.89205 6.26809 4.28255 6.67046 4.86306C6.75988 4.9916 6.84929 5.0412 7.00787 5.0412C9.10357 5.03561 11.1993 5.03491 13.295 5.0412C13.4857 5.0412 13.5555 4.9895 13.6044 4.7974C14.3512 1.84874 16.9674 -0.102357 20.0068 0.0101124C23.0442 0.121883 25.6422 2.56058 25.9502 5.59027C26.2988 9.01675 24.0026 11.9913 20.6027 12.5173C17.4892 12.9993 14.4183 10.9678 13.6338 7.88856C13.5632 7.61263 13.4619 7.54277 13.1874 7.54417C11.1441 7.55674 9.10078 7.55395 7.05747 7.54696C6.87444 7.54696 6.76337 7.59307 6.6523 7.74815C6.164 8.43135 5.48639 8.78413 4.64741 8.80578C4.13256 8.81905 3.61702 8.80927 3.10218 8.80858C2.64252 8.80858 2.52097 8.68353 2.51747 8.21409C2.51747 8.14494 2.51747 8.07578 2.51747 7.97029H2.51678ZM14.2576 6.31399C14.2499 9.28779 16.6998 11.7314 19.7015 11.7433C22.6837 11.7544 25.149 9.30665 25.1581 6.32517C25.1664 3.32272 22.7305 0.846298 19.7658 0.844901C16.6963 0.842805 14.266 3.25566 14.2576 6.31399ZM3.36693 7.96191C3.85453 7.96191 4.32677 7.99405 4.79271 7.95493C5.60864 7.88647 6.24503 7.19698 6.28765 6.39293C6.33166 5.54906 5.77699 4.78971 4.93592 4.66607C4.42736 4.59132 3.89924 4.6521 3.36763 4.6521V7.96191H3.36693ZM13.4207 5.89205H7.11685V6.69401H13.4207V5.89205ZM1.69875 5.46453V7.11734H2.50001V5.46453H1.69875Z" fill="#0F75BD"/>
<path d="M13.516 18.4482C12.2851 18.4482 11.0535 18.4586 9.82263 18.4454C8.20334 18.4286 6.63366 18.1268 5.11567 17.5631C4.33048 17.2711 3.80726 16.5648 3.77652 15.7608C3.74439 14.9204 4.19287 14.1939 4.96129 13.8285C5.52992 13.5582 6.1279 13.4199 6.75661 13.4199C8.69514 13.4185 10.633 13.4185 12.5715 13.4199C13.5313 13.4199 14.408 13.6986 15.2149 14.2141C16.2068 14.8484 17.2023 15.4786 18.195 16.1115C18.7517 16.4663 18.9774 16.9937 18.8174 17.5575C18.6588 18.1163 18.1775 18.4496 17.5229 18.4496C16.1873 18.4503 14.8516 18.4496 13.5153 18.4496V18.4475L13.516 18.4482ZM10.0769 17.6015C10.1293 17.6057 10.1712 17.6113 10.2124 17.6113C12.6658 17.6113 15.1192 17.6113 17.5725 17.6127C17.7898 17.6127 17.9512 17.5309 18.0112 17.3172C18.0727 17.0978 17.954 16.9539 17.7765 16.8415C16.7377 16.1827 15.7116 15.503 14.656 14.8729C14.2585 14.6361 13.8031 14.4 13.3574 14.3608C12.283 14.2665 11.1981 14.2889 10.1181 14.2658C10.1048 14.2658 10.0916 14.2847 10.0776 14.2959V17.6015H10.0769ZM9.20858 17.6113V14.2679C8.28578 14.2679 7.37903 14.24 6.47509 14.2812C6.10275 14.2987 5.72483 14.4328 5.37205 14.5718C4.8586 14.7737 4.59594 15.2089 4.6155 15.7112C4.63506 16.2072 4.93614 16.6221 5.45937 16.7919C6.0797 16.993 6.70492 17.1893 7.34061 17.3284C7.94837 17.4611 8.57289 17.5184 9.20788 17.6113H9.20858Z" fill="#0F75BD"/>
<path d="M11.7299 19.3074V20.1128H10.0854V19.3074H11.7299Z" fill="#0F75BD"/>
<path d="M21.0291 5.03639C21.2946 5.03639 21.5335 5.00915 21.7619 5.04617C21.9072 5.06992 22.0965 5.15864 22.1566 5.2746C22.216 5.39056 22.1922 5.61481 22.1126 5.72588C21.0221 7.25085 19.9156 8.76465 18.8118 10.2798C18.6721 10.4712 18.4863 10.5481 18.2642 10.4342C18.0448 10.3218 17.9994 10.1331 18.0581 9.90122C18.2677 9.07411 18.4723 8.24491 18.6777 7.41711C18.6987 7.33328 18.7161 7.24876 18.7427 7.13209C18.3871 7.13209 18.0497 7.1279 17.713 7.13349C17.5062 7.13698 17.3323 7.09018 17.2345 6.88829C17.1346 6.68222 17.2254 6.52224 17.3525 6.36367C18.4276 5.02312 19.5013 3.68117 20.5729 2.33852C20.7224 2.15131 20.8908 2.03185 21.1346 2.14432C21.3749 2.25469 21.4028 2.46007 21.3672 2.69549C21.2526 3.46252 21.1444 4.23024 21.0284 5.03569L21.0291 5.03639ZM20.9732 5.88445C20.8656 5.87956 20.807 5.87537 20.7483 5.87467C20.2083 5.86839 20.0825 5.71889 20.1622 5.18938C20.2174 4.82193 20.2635 4.45309 20.3145 4.08424C20.2998 4.07656 20.2858 4.06818 20.2712 4.06049C19.6878 4.7891 19.1045 5.5177 18.5268 6.24002C18.5471 6.27076 18.5513 6.28333 18.5562 6.28333C18.7741 6.28753 18.9914 6.28892 19.2093 6.29381C19.5928 6.3015 19.7626 6.51805 19.6739 6.89109C19.5894 7.24596 19.5006 7.60083 19.414 7.95501C19.4273 7.9606 19.4413 7.96618 19.4545 7.97107C19.9505 7.28927 20.4465 6.60747 20.9739 5.88375L20.9732 5.88445Z" fill="#0F75BD"/>
</g>
<defs>
<clipPath id="clip0_61_1487">
<rect width="26" height="25.9895" fill="white" transform="translate(0 0.00524902)"/>
</clipPath>
</defs>
</svg>
