<svg width="16" height="18" viewBox="0 0 16 18" fill="none" xmlns="http://www.w3.org/2000/svg">
<g clip-path="url(#clip0_61_1504)">
<path d="M7.49857 0.98291C7.83178 0.98291 8.16541 0.98291 8.49862 0.98291C8.5387 0.991679 8.57837 1.00546 8.61888 1.00838C9.96884 1.11068 11.2182 1.52365 12.3452 2.27275C14.2714 3.5534 15.4564 5.33554 15.8773 7.61833C15.9312 7.90937 15.9595 8.20542 16.0001 8.49896V9.5011C15.9913 9.5416 15.9775 9.58127 15.9742 9.62219C15.8689 10.9968 15.4455 12.2662 14.6772 13.4082C13.4024 15.3039 11.6395 16.4727 9.39219 16.8927C9.09698 16.9478 8.79676 16.9762 8.49862 17.0172H7.49857C7.45848 17.0084 7.41881 16.9946 7.37831 16.9913C5.77238 16.8635 4.32512 16.3131 3.06744 15.306C1.15502 13.7748 0.115718 11.7722 0.00840511 9.3203C-0.0834577 7.2133 0.578372 5.34305 1.96007 3.7484C3.20189 2.31492 4.76523 1.43095 6.63547 1.104C6.9215 1.0539 7.21087 1.02258 7.49857 0.98291ZM15.0935 9.00379C15.0969 5.08083 11.9205 1.89486 8.00256 1.8911C4.08795 1.88776 0.906991 5.07122 0.90365 8.99586C0.90031 12.918 4.07793 16.1052 7.99504 16.1085C11.9101 16.1119 15.0902 12.9288 15.0935 9.00337V9.00379Z" fill="#0F75BD"/>
<path d="M7.54506 9.45606C7.44777 9.45606 7.38054 9.45606 7.31331 9.45606C6.18841 9.45606 5.06393 9.45899 3.93903 9.45189C3.81042 9.45105 3.66887 9.41598 3.55654 9.35418C3.39787 9.26691 3.33983 9.06022 3.38701 8.88777C3.43587 8.70822 3.57951 8.57836 3.76073 8.55623C3.82754 8.54787 3.8956 8.54829 3.96324 8.54829C5.08815 8.54787 6.21263 8.54829 7.33753 8.54829H7.54506C7.54506 8.47104 7.54506 8.4105 7.54506 8.34995C7.54506 7.21795 7.54464 6.08553 7.5459 4.95353C7.5459 4.86543 7.54715 4.7744 7.56761 4.68964C7.61438 4.49672 7.81146 4.35976 8.01356 4.36645C8.21775 4.37313 8.3973 4.51885 8.43613 4.71928C8.45074 4.79528 8.45116 4.87503 8.45116 4.9527C8.452 6.0847 8.45158 7.21712 8.45158 8.34912V8.54871H8.65785C9.7982 8.54871 10.9386 8.54954 12.0789 8.54787C12.2463 8.54787 12.4 8.57042 12.5161 8.70822C12.7374 8.9717 12.5992 9.37631 12.2618 9.44103C12.1858 9.45565 12.1065 9.45606 12.0288 9.45606C10.9039 9.4569 9.77941 9.45648 8.65451 9.45648H8.452C8.452 9.54166 8.452 9.60806 8.452 9.67403C8.452 10.8165 8.452 11.9593 8.45158 13.1018C8.45158 13.3686 8.35679 13.5277 8.15929 13.6045C7.89456 13.7072 7.6006 13.541 7.55717 13.2596C7.54548 13.1828 7.54548 13.1039 7.54548 13.0258C7.54464 11.9092 7.54506 10.7927 7.54506 9.67612C7.54506 9.60973 7.54506 9.54333 7.54506 9.45648V9.45606Z" fill="#0F75BD"/>
</g>
<defs>
<clipPath id="clip0_61_1504">
<rect width="16" height="16.0342" fill="white" transform="translate(0 0.98291)"/>
</clipPath>
</defs>
</svg>
