<svg width="26" height="26" viewBox="0 0 26 26" fill="none" xmlns="http://www.w3.org/2000/svg">
<g clip-path="url(#clip0_21_535)">
<path d="M12.6229 13.0604C12.6229 11.9074 12.644 10.7909 12.6053 9.6766C12.5976 9.45148 12.4041 9.18414 12.2198 9.02375C11.5318 8.42296 10.231 8.43562 9.52471 9.01601C9.30803 9.19399 9.15467 9.41067 9.13216 9.70544C9.11527 9.93056 9.01749 10.1001 8.76423 10.1029C8.51308 10.1057 8.40896 9.94674 8.38856 9.71599C8.3569 9.36143 8.16273 9.10465 7.87219 8.93229C7.06387 8.4511 6.24147 8.44758 5.42822 8.91963C5.11939 9.09902 4.91397 9.36706 4.88653 9.74413C4.87035 9.97066 4.74724 10.1008 4.51508 10.1036C4.2984 10.1064 4.13167 9.95026 4.1577 9.70544C4.23368 8.98224 4.24705 8.23583 4.44403 7.54358C5.45285 4.00708 7.78284 1.8417 11.363 1.0376C11.7626 0.948256 12.1769 0.927854 12.6264 0.870167C12.6264 0.737206 12.6208 0.590877 12.6279 0.445956C12.6398 0.203248 12.789 0.0512918 13.0056 0.0646583C13.2371 0.0787283 13.3504 0.218725 13.3609 0.442438C13.3679 0.581732 13.3623 0.722432 13.3623 0.861022C13.8456 0.931372 14.3149 0.980617 14.7771 1.06996C18.2587 1.74392 21.098 4.66274 21.6882 8.18166C21.7677 8.65652 21.7987 9.14123 21.8332 9.62243C21.8543 9.92001 21.7248 10.0832 21.5011 10.1015C21.2697 10.1205 21.1388 9.99036 21.0987 9.69067C21.0558 9.37128 20.8785 9.14194 20.6274 8.95973C19.9288 8.4525 18.7736 8.45391 18.0716 8.96043C17.8113 9.14827 17.629 9.38394 17.6002 9.7167C17.5805 9.94815 17.4743 10.1057 17.2238 10.1022C16.9706 10.0994 16.8749 9.92845 16.8566 9.70403C16.8285 9.3565 16.6364 9.10817 16.3571 8.93933C15.5523 8.4518 14.7278 8.44477 13.9124 8.91048C13.5361 9.12575 13.3489 9.4557 13.3574 9.91368C13.3757 10.9338 13.3644 11.9538 13.3665 12.9746C13.3665 12.9908 13.3757 13.007 13.3912 13.0604C13.4812 13.0604 13.5825 13.0604 13.6838 13.0604C14.1186 13.0625 14.2199 13.1653 14.2213 13.6092C14.222 13.8265 14.2213 14.0439 14.2213 14.2944C14.3557 14.2944 14.4584 14.2944 14.5604 14.2944C16.8158 14.2944 19.0719 14.2944 21.3274 14.2944C21.7621 14.2944 21.9394 14.3999 21.9415 14.6581C21.9436 14.9015 21.7825 15.007 21.3604 15.0394C21.3435 15.0408 21.3274 15.0492 21.269 15.0675C21.269 15.4355 21.269 15.8182 21.269 16.2009C21.269 16.6659 21.1803 16.7552 20.7181 16.7552C18.673 16.7552 16.628 16.7552 14.5829 16.7552C14.4781 16.7552 14.3732 16.7552 14.2389 16.7552C14.2325 16.8523 14.222 16.9367 14.222 17.0204C14.2213 19.0789 14.2248 21.1366 14.2164 23.1951C14.2157 23.4146 14.2762 23.4828 14.4957 23.4765C14.9783 23.461 15.4609 23.4687 15.9435 23.473C16.279 23.4765 16.4078 23.6038 16.4106 23.9352C16.4148 24.4452 16.4141 24.9552 16.4106 25.4653C16.4085 25.803 16.2825 25.9345 15.9533 25.9345C13.9786 25.9366 12.0039 25.9366 10.0291 25.9345C9.70973 25.9345 9.57888 25.8051 9.57607 25.4885C9.57114 24.9693 9.57185 24.4508 9.57607 23.9316C9.57818 23.6024 9.70762 23.4758 10.0453 23.4723C10.5103 23.468 10.9753 23.4708 11.4411 23.4708C11.536 23.4708 11.631 23.4708 11.7457 23.4708V16.7545C11.6324 16.7545 11.5297 16.7545 11.4277 16.7545C9.37416 16.7545 7.31994 16.7545 5.26642 16.7545C4.80563 16.7545 4.71839 16.6659 4.71769 16.1981C4.71769 15.821 4.71769 15.4439 4.71769 15.0513C4.59317 15.0408 4.49046 15.0359 4.38775 15.0232C4.17318 14.9965 4.04655 14.8684 4.04936 14.656C4.05218 14.4442 4.18021 14.3169 4.39689 14.2993C4.48413 14.2923 4.57206 14.2944 4.66 14.2944C6.91543 14.2944 9.17155 14.2944 11.427 14.2944C11.5297 14.2944 11.6324 14.2944 11.7654 14.2944C11.7654 14.0249 11.7633 13.79 11.7654 13.555C11.7689 13.1821 11.885 13.0654 12.2508 13.0604C12.364 13.059 12.4766 13.0604 12.6201 13.0604H12.6229ZM8.42022 8.38708C8.66222 5.70674 9.8835 3.53433 11.8653 1.71226C7.88344 2.26029 5.37828 5.61669 5.07296 8.24216C6.2077 7.65403 7.37411 7.71875 8.42022 8.38778V8.38708ZM20.9383 8.26115C20.4522 5.09891 17.6663 2.16742 14.1319 1.72C16.1081 3.53503 17.3258 5.70744 17.57 8.39411C18.6759 7.69343 19.7832 7.66599 20.9383 8.26115ZM20.5211 15.052H5.47747V15.999H20.5211V15.052ZM12.6138 2.04009C10.682 3.73342 9.44873 5.7398 9.17367 8.34557C9.74772 7.9889 10.3154 7.83131 10.9233 7.83975C11.5283 7.8489 12.0897 8.02126 12.6145 8.37301V2.04009H12.6138ZM13.3799 2.04501V8.37512C13.911 8.01141 14.4767 7.8489 15.0831 7.83975C15.6888 7.83131 16.2523 8.00015 16.8193 8.34065C16.5351 5.73769 15.3082 3.72779 13.3799 2.04501ZM13.4692 23.4554V16.7756H12.5258V23.4554H13.4692ZM10.3211 25.174H15.6607V24.2348H10.3211V25.174ZM13.4692 14.2831V13.8202H12.5266V14.2831H13.4692Z" fill="#0F75BD"/>
<path d="M19.5328 20.5541V20.8468C19.5328 22.289 19.5328 23.7311 19.5328 25.1733C19.5328 25.2521 19.5363 25.3323 19.5286 25.4104C19.5075 25.6172 19.3801 25.7305 19.1831 25.741C18.996 25.7516 18.8623 25.6503 18.8166 25.4646C18.7941 25.3724 18.7969 25.2732 18.7969 25.1768C18.7955 23.7347 18.7962 22.2925 18.7962 20.8503C18.7962 20.7553 18.7962 20.6611 18.7962 20.5337C18.6358 20.5337 18.4979 20.5401 18.3607 20.5323C18.118 20.519 17.9612 20.3698 17.9605 20.163C17.9597 19.9576 18.1194 19.8077 18.3593 19.7972C18.4902 19.7915 18.621 19.7965 18.7962 19.7965C18.7962 19.6452 18.7962 19.5094 18.7962 19.3729C18.7962 19.0824 18.7941 18.7926 18.7962 18.5027C18.799 18.1355 18.9214 18.0117 19.2858 18.0117C20.7773 18.0117 22.2694 18.0138 23.7608 18.0152C23.8474 18.0152 23.9346 18.0152 24.0394 18.0152C24.2406 17.1407 24.4376 16.2782 24.636 15.4165C24.8428 14.5181 25.0489 13.6197 25.2586 12.722C25.3282 12.4231 25.4964 12.3006 25.7327 12.3604C25.948 12.4153 26.0352 12.6053 25.9705 12.8895C25.4352 15.2342 24.8963 17.579 24.3679 19.9252C24.3356 20.0694 24.3454 20.2411 24.3912 20.3818C24.8949 21.9435 25.4091 23.5025 25.9199 25.0615C25.9445 25.1367 25.9783 25.2099 25.9916 25.2873C26.0275 25.4962 25.9522 25.6552 25.7447 25.7213C25.5519 25.7825 25.3986 25.7136 25.3071 25.5307C25.2684 25.4526 25.2438 25.3675 25.2171 25.2838C24.7225 23.7741 24.2272 22.265 23.7376 20.7539C23.6884 20.6027 23.63 20.5281 23.4513 20.5288C22.2138 20.5379 20.9764 20.533 19.7396 20.5344C19.6805 20.5344 19.6207 20.5443 19.5335 20.552L19.5328 20.5541ZM19.5447 19.7866H23.6328C23.7095 19.4503 23.7854 19.1197 23.8649 18.7715H19.5447V19.7866Z" fill="#0F75BD"/>
<path d="M1.95099 18.0137C3.097 18.0137 4.21908 18.0137 5.34117 18.0137C5.79774 18.0137 6.25361 18.0116 6.71018 18.013C7.07108 18.0144 7.19278 18.1383 7.19489 18.509C7.197 18.929 7.19489 19.3483 7.19489 19.7999C7.37007 19.7999 7.5171 19.7957 7.66343 19.8006C7.88292 19.8077 8.00251 19.9364 8.02784 20.1439C8.05176 20.3374 7.89488 20.5098 7.67679 20.5302C7.52976 20.5442 7.38062 20.533 7.19489 20.533C7.19489 20.6448 7.19489 20.7384 7.19489 20.8313C7.19489 22.2819 7.19489 23.7332 7.19349 25.1838C7.19349 25.2879 7.19208 25.3977 7.16253 25.4955C7.10625 25.6798 6.95148 25.7874 6.77983 25.729C6.65531 25.6868 6.55049 25.5461 6.47029 25.4272C6.42878 25.366 6.45833 25.2563 6.45833 25.1684C6.45833 23.7353 6.45833 22.3016 6.45833 20.8686V20.5583C6.36969 20.5506 6.29441 20.5379 6.21984 20.5372C4.99997 20.5358 3.7801 20.5407 2.56093 20.5316C2.37661 20.5302 2.30626 20.5921 2.25139 20.7616C1.76668 22.265 1.27212 23.7656 0.780369 25.2668C0.769112 25.2999 0.759263 25.3337 0.748007 25.3667C0.639668 25.6854 0.475049 25.8015 0.240783 25.7248C0.0142555 25.6503 -0.0546876 25.4462 0.0473201 25.1339C0.56369 23.558 1.08428 21.9829 1.59362 20.4042C1.64145 20.2551 1.65693 20.0743 1.62246 19.923C1.09413 17.5762 0.554545 15.2321 0.01918 12.8866C-0.0567981 12.5546 0.105007 12.3238 0.392739 12.3534C0.615046 12.3759 0.691024 12.5314 0.735344 12.7276C1.0273 14.0115 1.32418 15.2947 1.61965 16.5779C1.72798 17.0485 1.83632 17.5185 1.95029 18.0137H1.95099ZM6.44637 18.7672H2.12546C2.20566 19.1196 2.28164 19.4503 2.35621 19.7781H6.44637V18.7672Z" fill="#0F75BD"/>
</g>
<defs>
<clipPath id="clip0_21_535">
<rect width="26" height="25.872" fill="white" transform="translate(0 0.0639648)"/>
</clipPath>
</defs>
</svg>
