<svg width="16" height="16" viewBox="0 0 16 16" fill="none" xmlns="http://www.w3.org/2000/svg">
<g clip-path="url(#clip0_61_1490)">
<path d="M0 2.62446C0.0246334 2.53553 0.0475967 2.4466 0.0743176 2.35809C0.283075 1.67002 0.901414 1.18654 1.62079 1.14938C1.69344 1.14562 1.7665 1.14354 1.83957 1.14354C4.03737 1.14354 6.23517 1.14312 8.43296 1.14395C8.52649 1.14395 8.62251 1.14312 8.7127 1.16274C8.97239 1.21952 9.15443 1.47296 9.1394 1.74225C9.12395 2.02115 8.91352 2.24953 8.64172 2.27834C8.56949 2.28586 8.49601 2.28335 8.42336 2.28335C6.21512 2.28335 4.00689 2.28335 1.79865 2.28377C1.47007 2.28377 1.24252 2.42823 1.17238 2.69377C1.1465 2.7923 1.14608 2.90002 1.14608 3.00315C1.14483 5.35209 1.14483 7.70061 1.14483 10.0495C1.14483 11.414 1.14483 12.7784 1.14524 14.1429C1.14524 14.2209 1.14524 14.2994 1.15568 14.3767C1.18741 14.618 1.38824 14.8163 1.63081 14.846C1.70304 14.8547 1.77611 14.8556 1.84917 14.8556C5.18762 14.856 8.52607 14.856 11.8641 14.8556C11.9367 14.8556 12.0102 14.8547 12.0825 14.8464C12.3371 14.8163 12.5413 14.605 12.5643 14.3491C12.571 14.2769 12.5697 14.2034 12.5697 14.1308C12.5697 12.3183 12.5693 10.5059 12.5718 8.69346C12.5718 8.58574 12.5818 8.47259 12.6148 8.37113C12.6908 8.13816 12.9296 7.98869 13.1734 8.00205C13.4206 8.01541 13.6314 8.18534 13.6911 8.42708C13.7083 8.49681 13.7162 8.57112 13.7162 8.64294C13.7174 10.5126 13.72 12.3822 13.7162 14.2518C13.7145 15.0873 13.1893 15.7595 12.3964 15.949C12.2465 15.9849 12.0875 15.9983 11.933 15.9983C8.54778 16.0008 5.16257 16.0008 1.77736 16C0.868013 16 0.19999 15.4468 0.0254684 14.5562C0.0217108 14.5366 0.00918532 14.5186 0.000835029 14.5003C0.000835029 10.5418 0.000835029 6.58292 0.000835029 2.62446H0Z" fill="#0F75BD"/>
<path d="M14.0637 -0.000803188C14.3635 0.109003 14.6879 0.176641 14.9589 0.335296C16.1175 1.01418 16.3492 2.63622 15.4495 3.63408C15.3797 3.71132 15.3075 3.78647 15.2336 3.85996C12.8037 6.28989 10.3729 8.71941 7.94463 11.1506C7.80476 11.2905 7.65028 11.3882 7.46156 11.45C6.39523 11.7998 5.33099 12.1568 4.26632 12.5134C4.0584 12.5831 3.85716 12.5952 3.6697 12.4624C3.44674 12.3046 3.37952 12.052 3.48014 11.7506C3.76238 10.9026 4.07552 10.0634 4.31977 9.20415C4.50848 8.54071 4.8592 8.02341 5.34894 7.5416C7.61229 5.31332 9.85142 3.06083 12.0922 0.809593C12.5014 0.398758 12.9515 0.090215 13.5381 0.0163149C13.5468 0.0150624 13.5548 0.00504202 13.5631 -0.0012207C13.7297 -0.0012207 13.8963 -0.0012207 14.0633 -0.0012207L14.0637 -0.000803188ZM4.90846 11.0871C4.95815 11.0746 4.98737 11.0692 5.01576 11.06C5.6913 10.8341 6.36684 10.6099 7.04071 10.379C7.11043 10.3552 7.17515 10.3022 7.22859 10.2492C9.64224 7.83804 12.0542 5.42564 14.4658 3.0124C14.5284 2.94977 14.5898 2.88506 14.6424 2.8145C14.8829 2.48967 14.9251 2.13311 14.7631 1.76821C14.5981 1.39745 14.3005 1.1887 13.8909 1.15404C13.5251 1.12315 13.2404 1.2818 12.989 1.53315C10.7583 3.76602 8.53416 6.00556 6.28668 8.22131C5.84035 8.66138 5.50175 9.12523 5.34894 9.73856C5.23663 10.1895 5.06252 10.6249 4.9093 11.0863L4.90846 11.0871Z" fill="#0F75BD"/>
</g>
<defs>
<clipPath id="clip0_61_1490">
<rect width="16" height="16.0017" fill="white" transform="translate(0 -0.000854492)"/>
</clipPath>
</defs>
</svg>
