<svg width="26" height="28" viewBox="0 0 26 28" fill="none" xmlns="http://www.w3.org/2000/svg">
<g clip-path="url(#clip0_233_941)">
<path fill-rule="evenodd" clip-rule="evenodd" d="M20.9386 10.1282V13.3906L22.3923 14.9194L13.0008 24.7255L3.64189 14.8849L4.80188 13.6736V10.387L0.5 14.8791L12.9784 28L25.5 14.9249L20.9386 10.1282Z" fill="#58585A"/>
<path fill-rule="evenodd" clip-rule="evenodd" d="M17.6749 17.8969L15.084 15.4072V7.3562L17.6749 4.86646V17.8969Z" fill="#0659A7"/>
<path fill-rule="evenodd" clip-rule="evenodd" d="M17.6455 4.82227L20.2436 7.31899V15.356L17.6455 17.8528V4.82227Z" fill="#019EE1"/>
<path fill-rule="evenodd" clip-rule="evenodd" d="M8.09971 17.8969L5.50879 15.4072V7.3562L8.09971 4.86646V17.8969Z" fill="#0F75BD"/>
<path fill-rule="evenodd" clip-rule="evenodd" d="M8.07031 4.82227L10.6609 7.31201V15.363L8.07031 17.8528V4.82227Z" fill="#233F9B"/>
<path fill-rule="evenodd" clip-rule="evenodd" d="M13.0552 22.0545L9.34033 18.4847V3.64052L13.0552 0.0710449V22.0545Z" fill="#008AD2"/>
<path fill-rule="evenodd" clip-rule="evenodd" d="M13.0112 0L16.7261 3.56986V18.4136L13.0112 21.9835V0Z" fill="#30C5F7"/>
</g>
<defs>
<clipPath id="clip0_233_941">
<rect width="25" height="28" fill="white" transform="translate(0.5)"/>
</clipPath>
</defs>
</svg>
