<svg width="85" height="93" viewBox="0 0 85 93" fill="none" xmlns="http://www.w3.org/2000/svg">
<g clip-path="url(#clip0_46_1482)">
<path fill-rule="evenodd" clip-rule="evenodd" d="M69.4911 33.64V44.4761L74.4337 49.5538L42.5026 82.1239L10.6824 49.4391L14.6264 45.4158V34.4998L0 49.4197L42.4265 93L85 49.5719L69.4911 33.64Z" fill="#58585A"/>
<path fill-rule="evenodd" clip-rule="evenodd" d="M58.3946 59.4437L49.5854 51.1742V24.4333L58.3946 16.1638V59.4437Z" fill="#0659A7"/>
<path fill-rule="evenodd" clip-rule="evenodd" d="M58.2953 16.0168L67.1289 24.3096V51.004L58.2953 59.2967V16.0168Z" fill="#019EE1"/>
<path fill-rule="evenodd" clip-rule="evenodd" d="M25.839 59.4437L17.0299 51.1742V24.4333L25.839 16.1638V59.4437Z" fill="#0F75BD"/>
<path fill-rule="evenodd" clip-rule="evenodd" d="M25.7397 16.0168L34.5476 24.2863V51.0272L25.7397 59.2967V16.0168Z" fill="#233F9B"/>
<path fill-rule="evenodd" clip-rule="evenodd" d="M42.687 73.2524L30.0565 61.3954V12.0916L42.687 0.23584V73.2524Z" fill="#008AD2"/>
<path fill-rule="evenodd" clip-rule="evenodd" d="M42.5374 0L55.1679 11.857V61.1595L42.5374 73.0165V0Z" fill="#30C5F7"/>
</g>
<defs>
<clipPath id="clip0_46_1482">
<rect width="85" height="93" fill="white"/>
</clipPath>
</defs>
</svg>
