<svg width="26" height="26" viewBox="0 0 26 26" fill="none" xmlns="http://www.w3.org/2000/svg">
<path d="M25.9993 20.1483V22.277C25.7833 22.8898 25.2938 23.0096 24.6959 22.9338C24.6959 23.6204 24.677 24.2609 24.702 24.8994C24.7223 25.4316 24.526 25.7945 24.0195 25.978H21.8867C21.3823 25.7701 21.1907 25.3875 21.2266 24.8554C21.2482 24.5283 21.2306 24.1979 21.2306 23.8695C21.2306 23.5696 21.2306 23.269 21.2306 22.9609H16.9041C16.9041 23.0577 16.9041 23.1403 16.9041 23.2222C16.9041 23.6434 16.9041 24.0652 16.9041 24.4864C16.9041 25.2941 16.6596 25.6367 15.8438 25.9773H10.1562C9.30177 25.6211 9.09594 25.3083 9.09594 24.3604C9.09594 23.9643 9.09661 23.5682 9.09526 23.1721C9.09526 23.1004 9.08307 23.0293 9.07698 22.9656H4.76937C4.76937 23.6089 4.74974 24.2331 4.77547 24.8554C4.79714 25.3875 4.61703 25.7701 4.11328 25.978H1.98047C1.47266 25.7952 1.27495 25.4316 1.29797 24.9C1.32167 24.3442 1.30406 23.7862 1.30271 23.2297C1.30271 23.1403 1.29391 23.0503 1.28781 22.9358C0.689271 23.0117 0.215313 22.8817 0 22.2784C0 21.5688 0 20.8592 0 20.1496C0.247813 19.7596 0.503073 19.3737 0.739375 18.9762C0.808438 18.8605 0.859219 18.7142 0.859896 18.5815C0.868698 17.1793 0.876823 15.777 0.859896 14.3748C0.851771 13.6984 0.896458 13.0558 1.45573 12.5839C0.69401 11.6908 0.676406 10.7206 1.39005 10.0239C2.0326 9.39619 3.07396 9.36911 3.74224 9.96291C4.50802 10.6427 4.51615 11.5913 3.80385 12.5209C4.00359 12.9028 4.19115 13.259 4.37734 13.6144C4.59604 13.2928 4.8425 12.9509 5.06458 12.5941C5.13974 12.4735 5.18984 12.3158 5.1912 12.1749C5.2 10.6881 5.20609 9.20119 5.19255 7.71432C5.18646 7.08937 5.2975 6.52333 5.78703 6.09067C4.88245 5.17052 5.15734 4.06823 5.7376 3.52182C6.40792 2.88942 7.4601 2.88942 8.12974 3.52182C8.70797 4.06687 8.98828 5.16239 8.14464 6.02703C8.34573 6.42989 8.53667 6.81177 8.73234 7.2038C9.01875 6.45291 9.69719 6.46578 10.4041 6.52536C10.4041 6.26062 10.4007 6.03447 10.4047 5.80901C10.4102 5.47994 10.3885 5.14614 10.4366 4.82317C10.5591 3.99645 11.0155 3.37963 11.7264 2.94968C11.0832 1.99635 11.1306 1.0877 11.8496 0.456663C12.5084 -0.121567 13.4922 -0.122921 14.147 0.4526C14.8688 1.0877 14.9189 2.00448 14.2763 2.94494C14.344 2.99166 14.4131 3.03838 14.4808 3.08645C15.0489 3.4927 15.4355 4.02963 15.5384 4.72161C15.6027 5.15224 15.5817 5.5964 15.5953 6.03448C15.6 6.19088 15.5959 6.34729 15.5959 6.53281C16.3191 6.45833 16.9792 6.46375 17.267 7.20515C17.4633 6.81244 17.6543 6.43057 17.8554 6.0277C17.0192 5.16984 17.2914 4.10276 17.8323 3.55906C18.4593 2.92802 19.4797 2.87317 20.1649 3.43921C20.4967 3.71343 20.7025 4.06416 20.7716 4.49005C20.8738 5.12041 20.6544 5.64447 20.2116 6.09C20.6531 6.49692 20.8074 6.99458 20.8047 7.56265C20.798 9.09151 20.802 10.621 20.8034 12.1499C20.8034 12.242 20.7817 12.355 20.8251 12.4234C21.0891 12.8385 21.3687 13.2427 21.6193 13.6144C21.8102 13.2522 21.9964 12.8994 22.1955 12.523C21.5015 11.6265 21.4886 10.7003 22.2002 10.0164C22.834 9.40703 23.8448 9.37317 24.5152 9.93989C24.8672 10.2371 25.071 10.6197 25.1225 11.0733C25.1889 11.6651 24.9654 12.1594 24.5429 12.5778C25.0081 13.0037 25.1448 13.5278 25.1394 14.1229C25.1259 15.6098 25.132 17.0967 25.1401 18.5835C25.1408 18.7162 25.1922 18.8625 25.2613 18.9783C25.4976 19.375 25.7522 19.761 26 20.1517L25.9993 20.1483ZM14.5979 16.3715C15.3739 16.7378 15.9663 17.2734 16.3854 17.9972C16.8039 18.719 16.9325 19.5091 16.9034 20.3304H25.0934C25.0561 20.2688 25.0365 20.2322 25.0135 20.1977C22.1609 15.9788 19.3084 11.7606 16.4599 7.53895C16.3705 7.40692 16.273 7.37578 16.1261 7.37578C14.0447 7.37916 11.9634 7.37916 9.88203 7.37239C9.71682 7.37239 9.62609 7.42588 9.53604 7.55994C6.70313 11.7409 3.86615 15.9192 1.03052 20.0982C0.98651 20.1632 0.950625 20.2336 0.891042 20.3345H9.09188C9.03635 18.5361 9.77505 17.1928 11.3946 16.3634C9.94026 15.0878 10.2802 13.2975 11.1874 12.4309C12.1936 11.4701 13.7739 11.4633 14.7943 12.414C15.6921 13.2502 16.0882 15.0559 14.5986 16.3715H14.5979ZM14.3027 25.0971V24.8188C14.3027 23.7294 14.3027 22.6399 14.3027 21.5505C14.3027 21.4158 14.2959 21.279 14.3156 21.1463C14.346 20.9371 14.4801 20.8179 14.6907 20.7983C14.9006 20.7786 15.0577 20.87 15.1281 21.0678C15.164 21.168 15.168 21.2831 15.168 21.3914C15.1707 22.5316 15.1694 23.6718 15.1694 24.8113C15.1694 24.9082 15.1694 25.005 15.1694 25.1052C15.2533 25.1099 15.2946 25.1133 15.3366 25.114C15.9176 25.1235 16.036 25.007 16.036 24.4261C16.036 22.948 16.036 21.4706 16.036 19.9925C16.036 19.4326 15.9108 18.9038 15.6291 18.4183C14.9358 17.224 13.5667 16.6518 12.2376 16.9958C10.9051 17.3411 9.97818 18.5185 9.96396 19.9099C9.95245 20.9906 9.96125 22.0719 9.96125 23.1525C9.96125 23.642 9.95651 24.1322 9.96328 24.6218C9.96802 24.9434 10.1339 25.1032 10.4508 25.1127C10.5666 25.116 10.683 25.1127 10.8279 25.1127C10.8279 24.9982 10.8279 24.9075 10.8279 24.8168C10.8279 23.6766 10.8272 22.5364 10.8293 21.3968C10.8293 21.2885 10.8327 21.1741 10.8672 21.0725C10.9342 20.8734 11.0893 20.78 11.2998 20.7962C11.5111 20.8125 11.6431 20.931 11.6824 21.1382C11.6993 21.2282 11.6953 21.323 11.6953 21.4158C11.6959 22.5472 11.6953 23.6793 11.6953 24.8107C11.6953 24.9075 11.6953 25.0036 11.6953 25.1127C12.5436 25.1127 13.3467 25.1127 14.1497 25.1127C14.1903 25.1127 14.2309 25.1045 14.302 25.0964L14.3027 25.0971ZM14.7286 14.322C14.736 13.3531 13.9662 12.5704 13.0034 12.5683C12.0602 12.5663 11.2802 13.3287 11.2701 14.2624C11.2592 15.2327 12.0169 16.0154 12.9824 16.0316C13.9242 16.0479 14.7211 15.2672 14.7286 14.3213V14.322ZM11.3168 6.49625H14.7286C14.7286 6.04192 14.736 5.60453 14.7272 5.16713C14.709 4.28625 14.0434 3.5875 13.1381 3.49067C12.3148 3.40198 11.4684 3.97953 11.3337 4.82182C11.247 5.36145 11.3174 5.92682 11.3174 6.49692L11.3168 6.49625ZM9.08375 21.237H0.878177V22.0665H9.08375V21.237ZM16.9149 22.0624H25.1198V21.2323H16.9149V22.0624ZM6.07818 11.0523C6.12219 11.0151 6.14521 11.0036 6.15807 10.9846C6.68484 10.21 7.21094 9.43411 7.73568 8.65817C7.76344 8.61755 7.79729 8.56812 7.79662 8.52276C7.7912 8.06776 7.81016 7.60937 7.7587 7.15911C7.71604 6.78807 7.3362 6.52265 6.95365 6.51453C6.56094 6.50572 6.19396 6.76979 6.10255 7.14286C6.07073 7.27218 6.06667 7.41031 6.06667 7.54505C6.06396 8.62567 6.06464 9.7063 6.06599 10.7869C6.06599 10.8675 6.07344 10.9481 6.07885 11.053L6.07818 11.0523ZM19.8738 11.0361C19.8941 11.0293 19.9144 11.0232 19.9347 11.0165C19.9347 10.9345 19.9347 10.8519 19.9347 10.77C19.9347 9.7063 19.9347 8.6426 19.934 7.5789C19.934 7.46921 19.932 7.35885 19.9164 7.25052C19.8649 6.88421 19.5955 6.60255 19.2312 6.52739C18.8927 6.45697 18.4939 6.60526 18.3395 6.92078C18.0754 7.46109 18.2041 8.04067 18.2305 8.60807C18.2305 8.61552 18.2379 8.62296 18.242 8.63041C18.7857 9.43208 19.3294 10.2344 19.8731 11.0361H19.8738ZM1.73198 17.444C1.78073 17.4169 1.79969 17.4129 1.80781 17.4007C2.33932 16.6193 2.87151 15.838 3.39896 15.0532C3.43823 14.995 3.45786 14.9131 3.45854 14.8413C3.46464 14.5122 3.46734 14.1825 3.45854 13.8534C3.44635 13.3761 3.08953 13.0159 2.62776 13.0017C2.15854 12.9874 1.74349 13.3422 1.7374 13.8209C1.72182 15.018 1.73198 16.2158 1.73198 17.4433V17.444ZM24.2139 17.4359C24.2315 17.4278 24.2491 17.4203 24.2667 17.4122C24.2667 16.2151 24.2775 15.018 24.2612 13.8209C24.2545 13.3416 23.8394 12.9874 23.3702 13.0023C22.9078 13.0172 22.5523 13.3768 22.5401 13.8541C22.532 14.1744 22.5279 14.496 22.5428 14.8156C22.5476 14.9246 22.5956 15.0437 22.6572 15.1365C23.1156 15.8244 23.5821 16.5076 24.0466 17.1915C24.1021 17.2727 24.1583 17.354 24.2139 17.4352V17.4359ZM3.88781 25.1018V22.9629H2.18495V25.1018H3.88781ZM22.1074 25.0991H23.813V22.9622H22.1074V25.0991ZM3.45922 11.2629C3.45583 10.7774 3.0726 10.4057 2.58375 10.4118C2.11453 10.4179 1.73536 10.7984 1.7313 11.2677C1.72724 11.7389 2.12807 12.1397 2.60068 12.1363C3.08208 12.133 3.4626 11.7457 3.45922 11.2629ZM13.8626 1.76953C13.8694 1.29083 13.4841 0.894058 13.0081 0.889319C12.5328 0.884579 12.1381 1.27458 12.136 1.7526C12.1333 2.22317 12.5084 2.60708 12.9777 2.61453C13.4658 2.62265 13.8558 2.24958 13.8626 1.7702V1.76953ZM22.5388 11.2765C22.5394 11.747 22.9166 12.1303 23.3851 12.1363C23.8597 12.1424 24.2612 11.7511 24.2667 11.2785C24.2721 10.8032 23.8807 10.4118 23.4007 10.4118C22.9139 10.4118 22.5381 10.789 22.5394 11.2771L22.5388 11.2765ZM7.79797 4.7839C7.79865 4.3052 7.41 3.92062 6.92724 3.92265C6.4438 3.92468 6.06464 4.31062 6.06938 4.79473C6.07411 5.26192 6.45802 5.64583 6.92453 5.64854C7.40188 5.65125 7.79661 5.26057 7.79729 4.78458L7.79797 4.7839ZM19.9286 4.77645C19.9245 4.29302 19.5399 3.91724 19.0538 3.92265C18.5744 3.92807 18.1905 4.32349 18.2007 4.80151C18.2108 5.26599 18.6022 5.64921 19.066 5.64786C19.546 5.64651 19.9327 5.25583 19.9293 4.77645H19.9286Z" fill="#0F75BD"/>
</svg>
