<svg width="26" height="34" viewBox="0 0 26 34" fill="none" xmlns="http://www.w3.org/2000/svg">
<g clip-path="url(#clip0_23_558)">
<path d="M26 32.1254V33.1651H0V32.1515H10.3656V23.7897H10.0318C7.77505 23.7897 5.51834 23.7897 3.26163 23.7897C2.17587 23.7897 1.53867 23.1551 1.53867 22.0728C1.53867 15.5626 1.53867 9.05324 1.53867 2.54302C1.53954 1.47986 2.18108 0.834839 3.23816 0.834839C9.74837 0.834839 16.2577 0.834839 22.7671 0.834839C23.8067 0.834839 24.4535 1.48073 24.4535 2.52216C24.4544 9.0428 24.4544 15.5634 24.4535 22.0841C24.4535 23.1473 23.812 23.7879 22.7505 23.7888C20.4938 23.7905 18.2371 23.7888 15.9804 23.7888H15.6162V32.1246H26V32.1254ZM12.9883 22.7465C16.2108 22.7465 19.4333 22.7465 22.6558 22.7465C23.2591 22.7465 23.4121 22.5961 23.4121 22.0041C23.4121 15.5478 23.4121 9.09235 23.4121 2.63604C23.4121 2.031 23.2626 1.87887 22.6706 1.87887C16.2256 1.87887 9.7814 1.87887 3.33639 1.87887C2.73222 1.87887 2.58009 2.02752 2.58009 2.62126C2.58009 9.07757 2.58009 15.533 2.58009 21.9893C2.58009 22.6039 2.72701 22.7474 3.35377 22.7474C6.56498 22.7474 9.77706 22.7474 12.9883 22.7474V22.7465ZM14.5356 32.1228V23.8166H11.4505V32.1228H14.5356Z" fill="#0F75BD"/>
<path d="M10.3923 16.4858C10.3923 17.3369 10.394 18.1401 10.3923 18.9434C10.3914 19.4345 10.2141 19.6136 9.72901 19.6153C9.12137 19.6179 8.51372 19.6188 7.90608 19.6153C7.45752 19.6127 7.26888 19.4284 7.26888 18.9833C7.26714 14.5377 7.26714 10.093 7.26888 5.64735C7.26888 5.19705 7.45404 5.01015 7.9 5.01015C9.636 5.00842 11.372 4.99625 13.108 5.01363C16.0732 5.04232 18.5681 7.45203 18.7193 10.412C18.8732 13.4389 16.706 16.0633 13.7426 16.4293C13.4209 16.4693 13.0941 16.4815 12.7698 16.4841C11.9909 16.4919 11.212 16.4867 10.394 16.4867L10.3923 16.4858ZM8.33204 6.11504V18.5574H9.35086C9.35086 18.4365 9.35086 18.3314 9.35086 18.2253C9.35086 17.5081 9.34826 16.791 9.35173 16.0738C9.35434 15.6287 9.5395 15.4453 9.9898 15.4435C10.8904 15.4409 11.7901 15.4488 12.6907 15.4401C13.0471 15.4366 13.407 15.4235 13.76 15.3749C15.9715 15.0663 17.6849 13.0373 17.6831 10.7423C17.6814 8.44912 15.9723 6.33323 13.7478 6.14546C11.9623 5.99507 10.1541 6.11504 8.33204 6.11504Z" fill="#0F75BD"/>
<path d="M9.35126 10.7145C9.35126 9.72696 9.34952 8.73856 9.35126 7.75103C9.35213 7.28074 9.53207 7.09731 9.99628 7.09644C11.0038 7.09384 12.0122 7.08514 13.0197 7.09818C14.9105 7.12339 16.4265 8.51949 16.6282 10.405C16.8186 12.1871 15.6128 13.8674 13.823 14.2951C13.5517 14.3603 13.2666 14.3908 12.9876 14.3942C11.9905 14.4055 10.9934 14.4012 9.99715 14.3986C9.53381 14.3977 9.353 14.2134 9.35126 13.7431C9.34865 12.7339 9.35126 11.7237 9.35126 10.7145ZM10.4075 13.3554C10.5187 13.3554 10.6031 13.3554 10.6882 13.3554C11.5341 13.3528 12.3825 13.3902 13.2249 13.3372C14.5062 13.2572 15.5311 12.1714 15.5963 10.9005C15.6633 9.58613 14.7835 8.36563 13.4944 8.21611C12.4834 8.09875 11.4471 8.19264 10.4075 8.19264V13.3554Z" fill="#0F75BD"/>
</g>
<defs>
<clipPath id="clip0_23_558">
<rect width="26" height="32.3303" fill="white" transform="translate(0 0.834839)"/>
</clipPath>
</defs>
</svg>
