<svg width="26" height="18" viewBox="0 0 26 18" fill="none" xmlns="http://www.w3.org/2000/svg">
<g clip-path="url(#clip0_21_541)">
<path d="M11.5869 7.13682C11.4606 7.13682 11.3553 7.13682 11.2499 7.13682C9.24889 7.13682 7.24866 7.13682 5.24764 7.13682C4.8084 7.13682 4.64881 6.97956 4.64649 6.54806C4.64416 6.01585 4.64494 5.48287 4.64649 4.95066C4.64804 4.51063 4.80297 4.34873 5.23292 4.34873C10.414 4.34795 15.5943 4.34795 20.7754 4.34873C21.1899 4.34873 21.3503 4.51296 21.3518 4.93206C21.3541 5.47434 21.3541 6.01662 21.3518 6.5589C21.3495 6.97336 21.1868 7.13604 20.7685 7.13682C18.7582 7.13837 16.7479 7.13682 14.7368 7.13682C14.6322 7.13682 14.5284 7.13682 14.4075 7.13682V16.4346C14.8321 16.4346 15.2457 16.433 15.6586 16.4346C16.0282 16.4361 16.2397 16.6019 16.2443 16.8909C16.2497 17.1884 16.0313 17.3634 15.6455 17.3634C13.8769 17.3642 12.1075 17.3642 10.3389 17.3634C9.96935 17.3634 9.75786 17.1961 9.75244 16.9079C9.74624 16.6097 9.96393 16.4361 10.3505 16.4346C10.7557 16.433 11.1608 16.4346 11.5861 16.4346V7.13682H11.5869ZM5.5885 6.18705H20.402V5.29152H5.5885V6.18705ZM13.4446 16.4207V7.16006H12.5498V16.4207H13.4446Z" fill="#0F75BD"/>
<path d="M17.9394 10.8724C17.858 10.8662 17.7929 10.8584 17.7271 10.8561C17.0136 10.8375 16.6108 10.3463 16.7332 9.64293C16.8966 8.70711 17.6434 8.07109 18.6025 8.06799C20.0233 8.06257 21.4433 8.06644 22.864 8.06644C22.9686 8.06644 23.0732 8.06644 23.2088 8.06644C23.2088 7.94017 23.2088 7.83636 23.2088 7.73333C23.2088 5.99106 23.2049 4.24801 23.2111 2.50575C23.2142 1.56063 23.8448 0.82158 24.7705 0.651924C25.4863 0.521002 25.9922 0.935459 25.993 1.66056C25.9945 4.17752 25.9845 6.69447 25.9992 9.21143C26.0031 9.90709 25.7776 10.437 25.1238 10.7585C25.247 11.6315 25.3686 12.5015 25.4933 13.3715C25.6328 14.3476 25.7784 15.3237 25.9147 16.3006C25.9829 16.7886 25.6715 17.2286 25.192 17.3418C24.7062 17.4556 24.2228 17.1992 24.0725 16.7057C23.8099 15.8466 23.5721 14.9797 23.3257 14.116C23.0182 13.0384 22.7114 11.9608 22.3969 10.8561C21.8717 10.8561 21.3534 10.8476 20.8351 10.8662C20.767 10.8685 20.6701 11.0017 20.6438 11.0908C20.2557 12.4171 19.8768 13.7457 19.4957 15.0735C19.3516 15.5747 19.2122 16.0782 19.0642 16.5779C18.8938 17.152 18.422 17.4603 17.9107 17.341C17.3723 17.2155 17.1035 16.77 17.1926 16.1642C17.4366 14.4994 17.6775 12.8339 17.9184 11.1683C17.9316 11.0753 17.9324 10.98 17.9394 10.8708V10.8724ZM17.6589 9.92569H17.9425C20.0961 9.92569 22.2505 9.92569 24.4041 9.92569C24.9309 9.92569 25.0657 9.78857 25.0657 9.25171C25.0657 6.79363 25.0657 4.33633 25.0657 1.87825V1.56838C24.4684 1.60944 24.1392 1.97354 24.1384 2.56927C24.1361 4.48507 24.1384 6.40087 24.1376 8.31666C24.1376 8.86514 24.0067 8.99451 23.4512 8.99451C21.8476 8.99451 20.244 9.00536 18.6412 8.98909C18.0896 8.98367 17.6148 9.43299 17.6589 9.92491V9.92569ZM23.3645 10.8638C23.8642 12.6177 24.3538 14.3391 24.8441 16.0604C24.8619 16.0566 24.8798 16.0519 24.8976 16.048C24.6644 14.3205 24.4312 12.5937 24.1973 10.8638H23.3645ZM18.1578 16.0596C18.1756 16.0635 18.1927 16.0666 18.2105 16.0705C18.7156 14.3406 19.2207 12.6107 19.7297 10.8669H18.9023C18.6536 12.603 18.4057 14.3313 18.1586 16.0604L18.1578 16.0596Z" fill="#0F75BD"/>
<path d="M0.864598 10.7547C0.223933 10.4378 -0.00382495 9.90949 4.84744e-05 9.21305C0.0155422 6.71546 0.00547127 4.2171 0.00624596 1.71952C0.00624596 0.902222 0.509792 0.499385 1.31237 0.67214C2.18776 0.860389 2.78504 1.59014 2.78892 2.50505C2.79511 4.23802 2.79124 5.97099 2.79124 7.70396C2.79124 7.81009 2.79124 7.91623 2.79124 8.06651C2.90357 8.06651 3.00505 8.06651 3.10654 8.06651C4.54668 8.06651 5.98682 8.06109 7.42696 8.06884C8.34496 8.07349 9.07084 8.68626 9.25367 9.58722C9.40628 10.341 9.01429 10.8337 8.24425 10.8562C8.18848 10.8577 8.1327 10.8662 8.04671 10.874C8.142 11.548 8.23418 12.2057 8.32947 12.8641C8.49138 13.9843 8.65871 15.103 8.8152 16.224C8.89421 16.7895 8.60061 17.2326 8.09241 17.3449C7.58345 17.4573 7.11011 17.1636 6.94975 16.609C6.42607 14.7993 5.90625 12.9873 5.39728 11.1738C5.32911 10.9298 5.23382 10.8275 4.96656 10.8492C4.60168 10.8778 4.23216 10.8686 3.86573 10.8515C3.66509 10.8422 3.58684 10.9057 3.53184 11.1025C3.02132 12.9261 2.49918 14.7466 1.9786 16.5679C1.78105 17.2597 1.15123 17.5618 0.568668 17.2496C0.20689 17.056 0.0325853 16.681 0.0953348 16.2464C0.353305 14.4561 0.609726 12.6658 0.866147 10.8755C0.87157 10.8383 0.866147 10.7996 0.866147 10.7554L0.864598 10.7547ZM0.934319 1.56923C0.934319 1.6862 0.934319 1.78226 0.934319 1.87833C0.934319 4.33795 0.934319 6.79835 0.934319 9.25798C0.934319 9.79174 1.06911 9.92654 1.60132 9.92654C3.7472 9.92654 5.89386 9.92654 8.03974 9.92654H8.34806C8.3039 9.33777 7.94058 8.99924 7.37273 8.99769C5.75829 8.99459 4.14384 8.99691 2.5294 8.99614C1.99719 8.99614 1.86239 8.86134 1.86239 8.32758C1.86239 6.41024 1.86317 4.49212 1.86162 2.57477C1.86162 1.98136 1.52928 1.61261 0.934319 1.56923ZM1.04975 16.1109C1.06447 16.1139 1.07996 16.117 1.09468 16.1209C1.60442 14.3763 2.11417 12.631 2.62933 10.8678H1.80119C1.55019 12.6193 1.29997 14.3655 1.04975 16.1109ZM7.72986 16.0032C7.75155 16.0032 7.77247 16.0024 7.79416 16.0016C7.56176 14.2911 7.33012 12.5814 7.09772 10.8678H6.26571C6.75763 12.5915 7.24413 14.2973 7.73064 16.0032H7.72986Z" fill="#0F75BD"/>
</g>
<defs>
<clipPath id="clip0_21_541">
<rect width="26" height="16.7441" fill="white" transform="translate(0 0.62793)"/>
</clipPath>
</defs>
</svg>
