<svg width="53" height="53" viewBox="0 0 53 53" fill="none" xmlns="http://www.w3.org/2000/svg">
<g clip-path="url(#clip0_48_1511)">
<path d="M24.9449 53C23.9403 52.8652 22.9291 52.7641 21.9313 52.5866C15.8209 51.4994 10.7061 48.6084 6.60252 43.9652C2.85854 39.7331 0.67643 34.7732 0.137081 29.1551C-0.528115 22.2229 1.24275 15.922 5.49911 10.3915C9.44085 5.26761 14.5939 1.94753 20.9335 0.624439C28.8529 -1.02662 36.1161 0.59299 42.5636 5.47877C47.7481 9.40536 51.0156 14.6191 52.4 20.983C52.6449 22.1061 52.7393 23.263 52.9056 24.4041C52.9326 24.5883 52.9685 24.7703 53 24.9545V28.0589C52.9573 28.4318 52.9146 28.8025 52.8741 29.1753C52.2404 34.8765 50.0605 39.9061 46.2177 44.1719C42.1366 48.7005 37.0802 51.5264 31.0642 52.5911C30.0664 52.7686 29.0574 52.8674 28.0529 53.0022H24.9471L24.9449 53ZM26.5247 2.88425C13.4905 2.86179 2.87877 13.4465 2.87203 26.4752C2.86529 39.5242 13.4096 50.091 26.4708 50.1224C39.4961 50.1539 50.1055 39.5736 50.1235 26.5314C50.1392 13.4959 39.5725 2.90447 26.5247 2.882V2.88425Z" fill="#0659A7"/>
<path d="M37.9611 32.1069C38.7365 32.6078 39.5118 33.111 40.3635 33.6613C37.024 38.4101 32.5272 41.0473 26.7652 41.1528C20.7671 41.2629 16.14 38.5359 12.6477 33.704C12.7533 33.6074 12.7983 33.5557 12.8522 33.5221C13.5736 33.0526 14.2972 32.5853 15.0366 32.1046C17.8524 36.0447 21.6054 38.2933 26.482 38.2888C31.3541 38.2843 35.1318 36.0784 37.9589 32.1091L37.9611 32.1069Z" fill="#0659A7"/>
<path d="M41.2108 23.263H38.3702C38.2871 22.2926 37.9477 21.394 37.0331 20.9358C36.505 20.6707 35.8533 20.518 35.2622 20.5359C33.9071 20.5786 33.0801 21.5198 32.7273 23.2877C32.2868 23.2877 31.8284 23.2877 31.3699 23.2877C30.9115 23.2877 30.444 23.2877 29.9092 23.2877C29.9451 21.3334 30.6755 19.7632 32.2531 18.6827C34.2734 17.2967 36.4241 17.2271 38.532 18.4715C40.3141 19.5228 41.1389 21.1761 41.2085 23.263H41.2108Z" fill="#0659A7"/>
<path d="M23.0954 23.2608H20.284C19.738 21.2436 18.866 20.4416 17.3041 20.5023C15.8614 20.5584 14.9467 21.4817 14.6209 23.2473H11.7893C11.8253 21.3828 12.5219 19.8351 14.0456 18.7479C16.0412 17.3259 18.1851 17.2091 20.3178 18.4154C22.1583 19.4577 23.0123 21.129 23.0932 23.2585L23.0954 23.2608Z" fill="#0659A7"/>
</g>
<defs>
<clipPath id="clip0_48_1511">
<rect width="53" height="53" fill="white"/>
</clipPath>
</defs>
</svg>
