<svg width="16" height="20" viewBox="0 0 16 20" fill="none" xmlns="http://www.w3.org/2000/svg">
<g clip-path="url(#clip0_61_1491)">
<path d="M10.2767 0.148071C10.5575 0.263616 10.866 0.337731 11.1136 0.502532C11.6559 0.863438 11.8746 1.41308 11.8796 2.05387C11.881 2.20671 11.8796 2.36 11.8796 2.54321C11.9607 2.54321 12.0283 2.54321 12.096 2.54321C12.7755 2.54321 13.4554 2.53769 14.1348 2.5446C14.9478 2.55288 15.549 2.90228 15.8731 3.66782C16.2381 4.5305 15.7875 5.59526 14.9105 5.92486C14.7365 5.99023 14.6909 6.07678 14.6914 6.25493C14.6969 9.92153 14.6951 13.5881 14.696 17.2547C14.696 17.8251 14.5804 18.3628 14.2485 18.8369C13.7905 19.4915 13.1585 19.8317 12.3598 19.8432C11.6868 19.8529 11.0133 19.8455 10.3403 19.8455C8.14767 19.8455 5.95462 19.8289 3.76248 19.8515C2.39988 19.8658 1.34478 18.8397 1.31762 17.4504C1.29507 16.3032 1.31164 15.1556 1.31118 14.0084C1.31118 11.4061 1.3098 8.80336 1.3144 6.20107C1.3144 6.0556 1.27297 5.99438 1.13441 5.9442C0.38912 5.67306 -0.0891723 4.87575 0.0139437 4.101C0.124425 3.27239 0.774423 2.62193 1.59291 2.5713C2.18674 2.53447 2.78426 2.55012 3.37994 2.54368C3.61702 2.54137 3.85409 2.54368 4.10728 2.54368C4.12109 2.27668 4.12385 2.01659 4.15055 1.7588C4.23387 0.949521 4.83968 0.315174 5.64711 0.178454C5.67795 0.17293 5.70649 0.158199 5.73642 0.148071C7.25001 0.148071 8.76361 0.148071 10.2767 0.148071ZM2.23462 6.06389V6.23513C2.23462 9.92153 2.23462 13.6079 2.236 17.2948C2.236 17.4223 2.24659 17.5512 2.26638 17.6778C2.38193 18.4185 2.95459 18.9212 3.69758 18.9221C6.57055 18.9248 9.44307 18.9235 12.316 18.923C12.6825 18.923 13.0075 18.8093 13.2786 18.5547C13.651 18.2044 13.7716 17.7574 13.7716 17.2667C13.7726 13.5996 13.7721 9.93212 13.7721 6.26506C13.7721 6.20245 13.7721 6.1403 13.7721 6.06527H2.23462V6.06389ZM7.99438 5.12986C10.0074 5.12986 12.02 5.12986 14.0331 5.1294C14.1353 5.1294 14.2384 5.1271 14.3402 5.11605C14.7351 5.07324 15.0265 4.76711 15.0606 4.36432C15.0937 3.97257 14.8438 3.60153 14.4667 3.5067C14.3383 3.47448 14.2002 3.4685 14.0667 3.4685C10.0217 3.46665 5.97671 3.46665 1.93172 3.46804C1.82952 3.46804 1.7264 3.47356 1.62559 3.48921C1.24995 3.54767 0.977433 3.84643 0.937844 4.23588C0.901017 4.5931 1.12981 4.96045 1.48289 5.07232C1.62605 5.11743 1.78487 5.12802 1.93678 5.12848C3.95629 5.13216 5.97533 5.13078 7.99484 5.13078L7.99438 5.12986ZM10.9429 2.53309C10.9429 2.29601 10.9608 2.07781 10.9392 1.86329C10.8941 1.41124 10.5447 1.07842 10.0921 1.07565C8.70054 1.06691 7.3094 1.06783 5.91779 1.07565C5.48599 1.07796 5.13521 1.37718 5.07307 1.80115C5.03854 2.0373 5.06708 2.28266 5.06708 2.53355H10.9433L10.9429 2.53309Z" fill="#0F75BD"/>
<path d="M5.73926 12.1151C5.73926 13.5058 5.73926 14.896 5.73926 16.2867C5.73926 16.3507 5.74156 16.4151 5.73603 16.4786C5.71348 16.7277 5.54269 16.9026 5.30838 16.9196C5.08005 16.9362 4.88395 16.7788 4.83469 16.5334C4.82088 16.4653 4.81766 16.3939 4.81766 16.324C4.81674 13.5108 4.81674 10.6982 4.8172 7.88502C4.8172 7.49189 4.99811 7.27691 5.3093 7.29486C5.55236 7.30867 5.7236 7.4859 5.73649 7.75152C5.74524 7.93704 5.73926 8.12301 5.73972 8.30899C5.73972 9.57768 5.73972 10.8464 5.73972 12.1151H5.73926Z" fill="#0F75BD"/>
<path d="M7.54162 12.0911C7.54162 10.6751 7.54116 9.25913 7.54208 7.84313C7.54208 7.51307 7.69307 7.31926 7.95823 7.29671C8.19576 7.27645 8.38496 7.40903 8.43836 7.64288C8.45815 7.72896 8.46414 7.82011 8.46414 7.90896C8.46552 10.7092 8.46552 13.509 8.46414 16.3092C8.46414 16.3981 8.45677 16.4888 8.43652 16.5748C8.38818 16.7792 8.21095 16.9173 8.00748 16.921C7.80539 16.9242 7.61988 16.7894 7.56832 16.5863C7.54668 16.5012 7.543 16.4091 7.54254 16.3203C7.54116 14.9107 7.54162 13.5012 7.54162 12.0911Z" fill="#0F75BD"/>
<path d="M10.2651 12.1132C10.2651 10.7101 10.2651 9.30697 10.2651 7.90339C10.2651 7.50566 10.4203 7.29621 10.7163 7.29206C11.0183 7.28746 11.1881 7.5075 11.1886 7.90708C11.1886 10.7069 11.1886 13.5071 11.1886 16.3069C11.1886 16.6986 11.027 16.9145 10.7319 16.9205C10.4304 16.927 10.2651 16.7092 10.2651 16.3032C10.2651 14.9065 10.2651 13.5094 10.2651 12.1127V12.1132Z" fill="#0F75BD"/>
</g>
<defs>
<clipPath id="clip0_61_1491">
<rect width="16" height="19.7039" fill="white" transform="translate(0 0.148071)"/>
</clipPath>
</defs>
</svg>
