<svg width="26" height="36" viewBox="0 0 26 36" fill="none" xmlns="http://www.w3.org/2000/svg">
<g clip-path="url(#clip0_23_563)">
<path d="M11.5887 35.902C10.9065 35.8329 10.2224 35.7768 9.54211 35.6927C7.43946 35.431 5.38914 34.9759 3.49021 33.9919C2.78279 33.6256 2.12769 33.1798 1.6053 32.5677C0.576402 31.3622 0.601634 29.9539 1.67165 28.7829C2.50337 27.8727 3.56217 27.3139 4.69293 26.8896C5.4639 26.6008 6.25824 26.3756 7.07874 26.1093C6.9666 25.9766 6.84978 25.8364 6.7311 25.699C5.4611 24.2234 4.16493 22.7703 2.9267 21.2694C0.736204 18.6117 -0.216064 15.5381 0.040927 12.1094C0.308197 8.53204 1.83706 5.57338 4.52939 3.21C4.59107 3.1558 4.65088 3.10066 4.71629 3.05206C4.98637 2.84928 5.26952 2.86329 5.46671 3.08664C5.65548 3.30158 5.63398 3.61464 5.40035 3.83705C5.17233 4.05386 4.92749 4.25291 4.70134 4.47065C0.518463 8.51242 -0.199243 14.9176 3.07716 19.7079C3.98737 21.0386 5.12 22.218 6.1732 23.4478C8.30482 25.9345 10.4514 28.4082 12.5924 30.8874C12.9353 31.2846 13.0381 31.2865 13.3783 30.8921C16.3388 27.4587 19.347 24.0646 22.2496 20.5816C26.7465 15.1858 25.4793 6.9359 19.5741 3.13243C15.7211 0.650369 11.6765 0.470942 7.53665 2.44089C7.39367 2.50911 7.19929 2.61284 7.08341 2.56518C6.90399 2.49229 6.70493 2.33062 6.63485 2.15774C6.53111 1.90075 6.69092 1.66992 6.9451 1.5718C7.94129 1.18678 8.91692 0.706439 9.94769 0.461597C17.1014 -1.23922 24.1569 3.18383 25.6849 10.3768C26.5661 14.5279 25.5811 18.2799 22.8327 21.5367C21.6375 22.9534 20.4124 24.344 19.2012 25.7467C19.0966 25.8672 18.9956 25.9906 18.877 26.1317C19.4302 26.2915 19.9432 26.4317 20.4516 26.5878C20.8553 26.712 21.0161 26.9625 20.9151 27.2737C20.8123 27.5905 20.5441 27.6933 20.1479 27.5839C19.5648 27.4223 18.9779 27.2756 18.3957 27.1111C18.1639 27.0457 18.0144 27.1092 17.8574 27.2933C16.6388 28.7203 15.4071 30.1361 14.1829 31.5584C13.3951 32.4752 12.5746 32.4714 11.7803 31.5481C10.5561 30.1258 9.33091 28.7044 8.09455 27.2924C8.00017 27.184 7.79457 27.0793 7.66842 27.1055C6.29562 27.3896 4.95085 27.7746 3.73692 28.4951C3.26219 28.7764 2.80615 29.125 2.42393 29.5212C1.7109 30.2623 1.72025 31.0856 2.38375 31.8706C2.91455 32.4985 3.60889 32.9032 4.34062 33.248C5.94798 34.0059 7.65814 34.4012 9.40848 34.6255C12.4494 35.0152 15.4781 34.9404 18.4807 34.2872C19.9087 33.9769 21.302 33.5499 22.5365 32.7415C22.9589 32.4649 23.3561 32.1173 23.6803 31.7313C24.2298 31.0772 24.2364 30.3426 23.6832 29.6903C23.3355 29.2801 22.8832 28.9521 22.4524 28.6203C22.1029 28.3521 21.9861 28.0905 22.1748 27.8073C22.3552 27.5363 22.6701 27.4746 23 27.7316C23.529 28.1447 24.0906 28.5484 24.5121 29.0605C25.3643 30.0959 25.3242 31.3416 24.499 32.4014C23.7981 33.3013 22.8449 33.8583 21.8235 34.3087C19.9068 35.1554 17.8798 35.5553 15.8071 35.7619C15.3333 35.8095 14.8595 35.8544 14.3857 35.9002H11.5878L11.5887 35.902Z" fill="#0F75BD"/>
<path d="M3.83345 12.8878C3.83345 7.84797 7.97147 3.71929 13.0057 3.73331C18.038 3.74826 22.1415 7.86012 22.1424 12.8887C22.1424 17.9286 18.01 22.0526 12.9692 22.0423C7.94157 22.032 3.83252 17.9145 3.83252 12.8878H3.83345ZM8.20136 19.3957C8.82281 18.8715 9.42277 18.3622 10.0255 17.8575C10.3778 17.5622 10.561 17.194 10.5535 16.7305C10.5451 16.2034 10.2564 15.8549 9.8676 15.5371C8.20323 14.1765 7.59487 11.9832 8.31257 9.98987C9.02654 8.00684 10.89 6.6845 13.015 6.72188C15.0831 6.75833 16.6129 7.74704 17.4811 9.60579C18.3539 11.4729 18.0698 13.2625 16.7811 14.8708C16.5288 15.1858 16.1999 15.4399 15.8989 15.7138C15.2822 16.2726 15.2373 17.2127 15.8429 17.7585C16.4681 18.322 17.126 18.85 17.7848 19.4069C20.5407 17.5183 21.7864 13.7186 20.693 10.3908C19.5585 6.93682 16.3241 4.67156 12.6936 4.78744C9.12279 4.90145 6.01928 7.41809 5.12775 10.9206C4.24744 14.3783 5.8221 17.8015 8.20043 19.3976L8.20136 19.3957ZM16.8858 20.0069C16.4045 19.5901 16.0073 19.2042 15.5672 18.8761C15.1065 18.5341 14.7196 18.1528 14.5215 17.6033C14.1514 16.5754 14.4579 15.5465 15.3691 14.7961C16.5877 13.7924 17.1026 12.5159 16.8381 10.9543C16.4877 8.88621 14.399 7.43118 12.3431 7.80311C10.1881 8.19374 8.75553 10.1983 9.11438 12.3037C9.29661 13.3691 9.84424 14.1914 10.6788 14.8615C11.5049 15.5259 11.7656 16.4081 11.5077 17.4277C11.3497 18.0538 10.947 18.5126 10.4106 18.8659C9.93769 19.178 9.51342 19.5453 9.17793 20.0508C11.7432 21.3031 14.2495 21.3059 16.8849 20.006L16.8858 20.0069Z" fill="#0F75BD"/>
</g>
<defs>
<clipPath id="clip0_23_563">
<rect width="26" height="35.804" fill="white" transform="translate(0 0.0980225)"/>
</clipPath>
</defs>
</svg>
