<svg width="26" height="30" viewBox="0 0 26 30" fill="none" xmlns="http://www.w3.org/2000/svg">
<g clip-path="url(#clip0_23_568)">
<path d="M3.00336 21.9924C2.70354 21.9924 2.44047 22.0241 2.18742 21.9874C0.887084 21.7978 0.00850198 20.7797 0.00349106 19.4602C-0.00235502 17.6746 0.00182075 15.8891 0.00182075 14.1027C0.00182075 11.9722 0.00182075 9.84172 0.00182075 7.71125C0.00182075 7.60685 -0.00820109 7.49912 0.0135129 7.3989C0.068633 7.14501 0.232323 6.99135 0.494561 6.99051C0.7568 6.98968 0.921325 7.14334 0.97895 7.39556C1.0015 7.49578 0.992313 7.60351 0.992313 7.70791C0.992313 10.0154 0.992313 12.3238 0.992313 14.6313C0.992313 14.7441 0.992313 14.856 0.992313 14.9863H2.00201C2.00201 14.8092 2.00201 14.6447 2.00201 14.481C2.00201 13.1857 1.99951 11.8912 2.00201 10.5959C2.00535 9.0667 3.07519 8.00689 4.59684 7.98267C6.00992 7.96012 7.19667 8.44451 8.18048 9.46173C8.92711 10.2342 9.6871 10.9942 10.463 11.7375C10.6108 11.8787 10.858 11.9814 11.0618 11.9856C12.1658 12.0098 13.2707 11.9956 14.3756 11.9973C15.2233 11.9981 15.8246 12.4691 15.9741 13.2441C16.1136 13.9674 15.6944 14.633 14.9076 14.937C14.8918 14.9428 14.8809 14.9604 14.85 14.9888H22.9393C22.85 14.2522 22.7639 13.5306 22.6746 12.8099C22.5359 11.6916 22.3889 10.5742 22.257 9.45505C22.1651 8.67752 21.6991 8.12214 20.9993 8.03111C20.9993 8.78275 21.0126 9.53021 20.9934 10.2777C20.9842 10.6502 20.9567 11.0318 20.8681 11.3918C20.5107 12.8449 19.1636 13.9248 17.6703 13.9866C17.2051 14.0058 17.0081 13.8279 17.0072 13.3719C17.0055 9.44503 17.0055 5.51897 17.0072 1.59208C17.0072 1.13274 17.201 0.955692 17.6662 0.974065C19.4634 1.04338 20.9425 2.53914 20.9917 4.36562C21.0151 5.23084 20.9959 6.09773 20.9959 6.96212C21.0527 6.98633 21.0886 7.00888 21.1279 7.01891C22.4658 7.35464 23.1013 8.11713 23.2575 9.48845C23.4579 11.2506 23.6926 13.0086 23.9139 14.7691C23.9231 14.8401 23.939 14.9094 23.9565 15.0046C24.4309 15.0046 24.8986 15.003 25.3654 15.0046C25.7646 15.0063 25.9951 15.1867 25.9985 15.4957C26.0018 15.8047 25.7688 15.9968 25.3755 15.9968C21.1345 15.9976 16.8928 15.9968 12.6519 15.9993C12.3963 15.9993 12.1725 15.9576 12.0548 15.697C11.9286 15.418 12.0673 15.2209 12.322 14.9955C12.0197 14.9955 11.7767 14.9955 11.5336 14.9955C11.0233 14.9955 10.5122 14.9904 10.0019 14.9971C9.52675 15.0038 9.12671 14.8384 8.79849 14.4969C8.55546 14.2447 8.31577 13.9899 8.07441 13.736C8.04769 13.7502 8.0218 13.7636 7.99508 13.7778V14.0125C7.99508 15.1926 7.99424 16.3726 7.99508 17.5527C7.99508 17.9811 8.112 18.1206 8.5421 18.2091C9.33717 18.3728 10.1331 18.5307 10.9281 18.6952C12.1792 18.9541 12.991 19.9304 12.9951 21.2006C13.0018 23.2894 13.0002 25.3781 12.9951 27.466C12.9935 28.3546 12.3454 29.0277 11.5061 29.0302C10.655 29.0335 10.007 28.3546 10.0053 27.4459C10.0019 25.7856 10.0053 24.1254 10.0045 22.4651C10.0045 22.0099 9.89839 21.8763 9.4591 21.766C8.98557 21.6475 8.51204 21.5305 8.0385 21.4128C7.88818 21.9456 7.79714 22.0141 7.24678 22.0141C6.17528 22.0141 5.10377 22.0141 3.99302 22.0141V22.3707C3.99302 24.3442 3.99302 26.3185 3.99302 28.2919C3.99302 28.3963 3.9997 28.5024 3.983 28.6043C3.94208 28.8582 3.72159 29.0461 3.48024 29.0269C3.21967 29.0068 3.05932 28.8565 3.01171 28.6009C2.99251 28.4999 3.00253 28.393 3.00253 28.2886C3.00253 26.3251 3.00253 24.3625 3.00253 22.3991V21.9932L3.00336 21.9924ZM3.00336 15.9976C3.00336 16.9247 2.96161 17.8124 3.01756 18.6952C3.05765 19.3316 3.46353 19.7633 4.08071 19.9496C4.2753 20.008 4.49077 20.0064 4.69789 20.0164C5.50632 20.0557 6.32059 19.932 7.12234 20.1509C7.99507 20.3889 8.87616 20.5985 9.75307 20.8223C10.5849 21.0345 10.9975 21.5631 10.9983 22.4225C11 23.8948 10.9983 25.3672 10.9983 26.8396C10.9983 27.0592 10.9933 27.2781 11 27.4977C11.0108 27.8184 11.2079 28.0297 11.491 28.0364C11.7858 28.0431 11.9921 27.8251 12.0072 27.4902C12.0097 27.4384 12.0072 27.3858 12.0072 27.3332C12.0072 25.318 12.0072 23.3027 12.0072 21.2875C12.0072 20.3839 11.5461 19.8243 10.6559 19.6448C9.89087 19.4903 9.12504 19.3408 8.3592 19.1904C7.4706 19.0159 7.00709 18.4555 7.00625 17.5494C7.00542 16.0252 7.01126 14.5002 6.9979 12.9761C6.99623 12.8216 6.91272 12.6412 6.81166 12.5184C6.61373 12.2779 6.36903 12.0766 6.15857 11.8453C5.95062 11.6173 5.95897 11.3392 6.1569 11.1437C6.354 10.9483 6.62292 10.95 6.85927 11.1512C6.92274 11.2055 6.97869 11.2682 7.03715 11.3275C7.64849 11.9405 8.30408 12.5159 8.85946 13.1765C9.41317 13.8354 10.0395 14.0751 10.8939 14.0217C12.0456 13.949 13.2056 14.005 14.3623 14.0033C14.7774 14.0033 15.0104 13.8145 15.0062 13.4913C15.002 13.169 14.7732 12.9953 14.3489 12.9928C14.2863 12.9928 14.2236 12.9928 14.161 12.9928C13.1296 12.9928 12.0982 12.9844 11.0668 12.9961C10.544 13.0019 10.1189 12.8249 9.75391 12.4524C9.00227 11.6849 8.22808 10.9391 7.48229 10.1658C6.69056 9.34481 5.74183 8.95062 4.60185 8.97818C3.62555 9.00156 2.99668 9.61039 2.99501 10.5858C2.99251 11.9538 2.99418 13.3218 2.99501 14.6898C2.99501 14.79 3.0042 14.8902 3.01004 15.0063C3.74665 15.0063 4.45402 15.0063 5.1614 15.0063C5.25494 15.0063 5.34931 15.0038 5.44285 15.0063C5.76856 15.0188 5.98319 15.2068 5.99238 15.4865C6.0024 15.7763 5.77941 15.9943 5.44201 15.9968C4.6411 16.0027 3.84019 15.9985 3.00253 15.9985L3.00336 15.9976ZM18.0161 2.04139V12.9176C19.0517 12.7856 19.9845 11.7526 19.9987 10.6435C20.0246 8.53554 20.0246 6.42762 19.9987 4.31969C19.9854 3.20977 19.0642 2.18504 18.0161 2.04056V2.04139ZM4.00805 21.0161C4.01306 21.0019 4.01807 20.9877 4.02309 20.9735C3.93706 20.9468 3.85104 20.92 3.76502 20.8933C2.7311 20.5684 2.02707 19.6456 2.00702 18.5607C1.99283 17.8208 2.00368 17.0808 2.00285 16.3409C2.00285 16.2315 2.00285 16.1221 2.00285 16.0235H0.996489C0.996489 17.237 0.980621 18.4246 1.00233 19.6122C1.0157 20.3521 1.64958 20.9793 2.38785 21.0119C2.92736 21.0353 3.46854 21.0169 4.00889 21.0169L4.00805 21.0161Z" fill="#0F75BD"/>
<path d="M5.00496 0.969855C6.65355 0.973195 8.00149 2.33199 7.99481 3.98476C7.98813 5.63586 6.62683 6.98547 4.97824 6.97377C3.34468 6.96292 2.00425 5.6108 2.00342 3.9739C2.00258 2.32447 3.35804 0.966514 5.00496 0.969855ZM4.98241 5.98078C6.08982 5.98746 6.99764 5.09301 7.00348 3.9881C7.00933 2.87735 6.11822 1.96953 5.01582 1.96285C3.90757 1.95617 3.00143 2.84979 2.99475 3.95469C2.98806 5.06461 3.88084 5.97409 4.98241 5.98078Z" fill="#0F75BD"/>
</g>
<defs>
<clipPath id="clip0_23_568">
<rect width="26" height="28.0603" fill="white" transform="translate(0 0.969849)"/>
</clipPath>
</defs>
</svg>
