<svg width="10" height="18" viewBox="0 0 10 18" fill="none" xmlns="http://www.w3.org/2000/svg">
<path d="M8.94398 0C9.25291 0.0797862 9.52973 0.209196 9.73552 0.468501C10.0824 0.904893 10.0907 1.5388 9.74282 1.97568C9.67568 2.06033 9.60076 2.14012 9.52438 2.2165C7.39204 4.34932 5.25971 6.48215 3.12591 8.61351C3.07775 8.66167 3.02034 8.70059 2.9318 8.8193C2.99212 8.85287 3.06364 8.87476 3.11083 8.92195C5.26554 11.0728 7.41734 13.2265 9.57157 15.3783C9.95201 15.7583 10.0984 16.1976 9.93207 16.7201C9.68784 17.4849 8.70657 17.7967 8.06341 17.3151C7.99044 17.2606 7.92038 17.2007 7.85616 17.1365C5.37549 14.6573 2.89531 12.1776 0.416099 9.69695C-0.0363474 9.24401 -0.12635 8.66897 0.1782 8.15182C0.252148 8.02581 0.355773 7.91392 0.46037 7.80981C2.86563 5.40065 5.27479 2.9949 7.67859 0.584288C7.94519 0.317199 8.22007 0.0788132 8.601 0L8.94398 0Z" fill="black"/>
</svg>
